# xmcd
#
# Track frame offsets: 
#        150
#        14864
#        24470
#        39981
#        50893
#        62418
#        71698
#        81393
#        94712
#        108612
#        119270
#        129374
#        141765
#        151568
#        165292
#        174457
#        185558
#        199137
#
# Disc length: 2802 seconds
#
# Revision: 1
# Processed by: cddbd v1.5.2PL0 Copyright (c) Steve Scherf et al.
# Submitted via: ExactAudioCopy v1.3
#
DISCID=f30af012
DTITLE=Bill Monroe - 5 Classic Albiums Plus_CD02
DYEAR=2015
DGENRE=Bluegrass
TTITLE0=Precious Memories
TTITLE1=House Of Gold
TTITLE2=I've Found A Hiding Place
TTITLE3=Jesus, Hold My Hand
TTITLE4=I Am A Pilgrim
TTITLE5=Lord Build Me A Cabin In Glory
TTITLE6=Linda Lou
TTITLE7=Little Joe
TTITLE8=Seven Year Blues
TTITLE9=You Live In A World All Your Own
TTITLE10=Time Changes Everything
TTITLE11=Bluegrass Part 1
TTITLE12=Big River
TTITLE13=Flowers Of Love
TTITLE14=It's Mighty Dark To Travel
TTITLE15=Sold Down The River
TTITLE16=Put My Ruibber Doll Away
TTITLE17=Lonesome Road Blues
EXTD=
EXTT0=
EXTT1=
EXTT2=
EXTT3=
EXTT4=
EXTT5=
EXTT6=
EXTT7=
EXTT8=
EXTT9=
EXTT10=
EXTT11=
EXTT12=
EXTT13=
EXTT14=
EXTT15=
EXTT16=
EXTT17=
PLAYORDER=
